<?xml version="1.0" encoding="UTF-8"?>
<svg width="3300px" height="2200px" viewBox="0 0 3300 2200" version="1.1" xmlns="http://www.w3.org/2000/svg" xmlns:xlink="http://www.w3.org/1999/xlink">
    <!-- Generator: Sketch 56.3 (81716) - https://sketch.com -->
    <title>noImage</title>
    <desc>Created with Sketch.</desc>
    <g id="Page-1" stroke="none" stroke-width="1" fill="none" fill-rule="evenodd">
        <g id="noImage">
            <g id="Notes">
                <rect id="artboard" fill="#FFFFFF" fill-rule="nonzero" x="0" y="0" width="3300" height="2200"></rect>
                <path d="M263,292 L3036,292" id="Path" stroke="#000000" stroke-width="0.5"></path>
                <text id="Weight/Scale-Variations" fill="#000000" font-family="Helvetica-Bold, Helvetica" font-size="13" font-weight="bold">
                    <tspan x="263" y="322">Weight/Scale Variations</tspan>
                </text>
                <text id="Ultralight" fill="#000000" font-family="Helvetica" font-size="13" font-weight="normal">
                    <tspan x="533.711" y="322">Ultralight</tspan>
                </text>
                <text id="Thin" fill="#000000" font-family="Helvetica" font-size="13" font-weight="normal">
                    <tspan x="843.422" y="322">Thin</tspan>
                </text>
                <text id="Light" fill="#000000" font-family="Helvetica" font-size="13" font-weight="normal">
                    <tspan x="1138.63" y="322">Light</tspan>
                </text>
                <text id="Regular" fill="#000000" font-family="Helvetica" font-size="13" font-weight="normal">
                    <tspan x="1426.84" y="322">Regular</tspan>
                </text>
                <text id="Medium" fill="#000000" font-family="Helvetica" font-size="13" font-weight="normal">
                    <tspan x="1723.06" y="322">Medium</tspan>
                </text>
                <text id="Semibold" fill="#000000" font-family="Helvetica" font-size="13" font-weight="normal">
                    <tspan x="2015.77" y="322">Semibold</tspan>
                </text>
                <text id="Bold" fill="#000000" font-family="Helvetica" font-size="13" font-weight="normal">
                    <tspan x="2326.48" y="322">Bold</tspan>
                </text>
                <text id="Heavy" fill="#000000" font-family="Helvetica" font-size="13" font-weight="normal">
                    <tspan x="2618.19" y="322">Heavy</tspan>
                </text>
                <text id="Black" fill="#000000" font-family="Helvetica" font-size="13" font-weight="normal">
                    <tspan x="2917.4" y="322">Black</tspan>
                </text>
                <path d="M263,1903 L3036,1903" id="Path" stroke="#000000" stroke-width="0.5"></path>
                <g id="Group" transform="translate(264.000000, 1918.000000)" fill="#000000" fill-rule="nonzero">
                    <path d="M8.24805,15.830078 C12.5547,15.830078 16.1387,12.25586 16.1387,7.94922 C16.1387,3.6426 12.5449,0.0684 8.23828,0.0684 C3.94141,0.0684 0.36719,3.6426 0.36719,7.94922 C0.36719,12.25586 3.95117,15.830078 8.24805,15.830078 Z M8.24805,14.345703 C4.70312,14.345703 1.87109,11.50391 1.87109,7.94922 C1.87109,4.3945 4.69336,1.5527 8.23828,1.5527 C11.793,1.5527 14.6348,4.3945 14.6445252,7.94922 C14.6543,11.50391 11.8027,14.345703 8.24805,14.345703 Z M8.22852,11.57227 C8.69727,11.57227 8.9707,11.25977 8.9707,10.74219 L8.9707,8.68164 L11.1973,8.68164 C11.6953,8.68164 12.0371,8.42773 12.0371,7.95898 C12.0371,7.48047 11.7148,7.2168 11.1973,7.2168 L8.9707,7.2168 L8.9707,4.9902 C8.9707,4.4727 8.69727,4.1504 8.22852,4.1504 C7.75977,4.1504 7.50586,4.4922 7.50586,4.9902 L7.50586,7.2168 L5.29883,7.2168 C4.78125,7.2168 4.44922,7.48047 4.44922,7.95898 C4.44922,8.42773 4.80078,8.68164 5.29883,8.68164 L7.50586,8.68164 L7.50586,10.74219 C7.50586,11.24023 7.75977,11.57227 8.22852,11.57227 Z" id="Shape"></path>
                </g>
                <g id="Group" transform="translate(282.506000, 1915.000000)" fill="#000000" fill-rule="nonzero">
                    <path d="M10.709,20.91016 C16.1484,20.91016 20.6699,16.39844 20.6699,10.94922 C20.6699,5.5098 16.1387,0.9883 10.6992,0.9883 C5.25,0.9883 0.74805,5.5098 0.74805,10.94922 C0.74805,16.39844 5.25977,20.91016 10.709,20.91016 Z M10.709,19.25 C6.09961,19.25 2.41797,15.55859 2.41797,10.94922 C2.41797,6.3496 6.08984,2.6484 10.6992,2.6484 C15.2988,2.6484 19,6.3496 19.009819,10.94922 C19.0195,15.55859 15.3086,19.25 10.709,19.25 Z M10.6797,15.58789 C11.207,15.58789 11.5195,15.22656 11.5195,14.66016 L11.5195,11.76953 L14.5762,11.76953 C15.123,11.76953 15.5039,11.48633 15.5039,10.96875 C15.5039,10.44141 15.1426,10.13867 14.5762,10.13867 L11.5195,10.13867 L11.5195,7.0723 C11.5195,6.4961 11.207,6.1445 10.6797,6.1445 C10.1621,6.1445 9.8789,6.5156 9.8789,7.0723 L9.8789,10.13867 L6.83203,10.13867 C6.25586,10.13867 5.89453,10.44141 5.89453,10.96875 C5.89453,11.48633 6.28516,11.76953 6.83203,11.76953 L9.8789,11.76953 L9.8789,14.66016 C9.8789,15.20703 10.1621,15.58789 10.6797,15.58789 Z" id="Shape"></path>
                </g>
                <g id="Group" transform="translate(306.914000, 1913.000000)" fill="#000000" fill-rule="nonzero">
                    <path d="M12.9707,25.67383 C19.9336,25.67383 25.6855,19.921875 25.6855,12.95898 C25.6855,5.9961 19.9238,0.2441 12.9609,0.2441 C5.99805,0.2441 0.25586,5.9961 0.25586,12.95898 C0.25586,19.921875 6.00781,25.67383 12.9707,25.67383 Z M12.9707,23.85742 C6.92578,23.85742 2.08203,18.99414 2.08203,12.95898 C2.08203,6.9238 6.91602,2.0605 12.9609,2.0605 C18.9961,2.0605 23.8594,6.9238 23.8691148,12.95898 C23.8789,18.99414 19.0059,23.85742 12.9707,23.85742 Z M12.9414,18.93555 C13.5176,18.93555 13.8594,18.54492 13.8594,17.93945 L13.8594,13.86719 L18.0977,13.86719 C18.6934,13.86719 19.1133,13.53516 19.1133,12.97852 C19.1133,12.40234 18.7227,12.06055 18.0977,12.06055 L13.8594,12.06055 L13.8594,7.8125 C13.8594,7.1973 13.5176,6.8066 12.9414,6.8066 C12.3848,6.8066 12.0625,7.2168 12.0625,7.8125 L12.0625,12.06055 L7.82422,12.06055 C7.20898,12.06055 6.80859,12.40234 6.80859,12.97852 C6.80859,13.53516 7.23828,13.86719 7.82422,13.86719 L12.0625,13.86719 L12.0625,17.93945 C12.0625,18.52539 12.3848,18.93555 12.9414,18.93555 Z" id="Shape"></path>
                </g>
                <text id="Design-Variations" fill="#000000" font-family="Helvetica-Bold, Helvetica" font-size="13" font-weight="bold">
                    <tspan x="263" y="1953">Design Variations</tspan>
                </text>
                <text id="Symbols-are-supported-in-up-to-nine-weights-and-three-scales." fill="#000000" font-family="Helvetica" font-size="13" font-weight="normal">
                    <tspan x="263" y="1971">Symbols are supported in up to nine weights and three scales.</tspan>
                </text>
                <text id="For-optimal-layout-with-text-and-other-symbols,-vertically-align" fill="#000000" font-family="Helvetica" font-size="13" font-weight="normal">
                    <tspan x="263" y="1989">For optimal layout with text and other symbols, vertically align</tspan>
                </text>
                <text id="symbols-with-the-adjacent-text." fill="#000000" font-family="Helvetica" font-size="13" font-weight="normal">
                    <tspan x="263" y="2007">symbols with the adjacent text.</tspan>
                </text>
                <rect id="Rectangle" fill="#00AEEF" fill-rule="nonzero" opacity="0.4" x="776" y="1919" width="3" height="14"></rect>
                <g id="Group" transform="translate(779.000000, 1918.000000)" fill="#000000" fill-rule="nonzero">
                    <path d="M10.5273,15 L12.373,15 L7.17773,0.9082 L5.43945,0.9082 L0.244141,15 L2.08984,15 L3.50586,10.9668 L9.11133,10.9668 L10.5273,15 Z M6.2793,3.0469 L6.33789,3.0469 L8.59375,9.47266 L4.02344,9.47266 L6.2793,3.0469 Z" id="Shape"></path>
                </g>
                <rect id="Rectangle" fill="#00AEEF" fill-rule="nonzero" opacity="0.4" x="791.617" y="1919" width="3" height="14"></rect>
                <text id="Side-Bearings" fill="#000000" font-family="Helvetica-Bold, Helvetica" font-size="13" font-weight="bold">
                    <tspan x="776" y="1953">Side Bearings</tspan>
                </text>
                <text id="Horizontal-padding-on-the-left-and-right-side-of-each-symbol" fill="#000000" font-family="Helvetica" font-size="13" font-weight="normal">
                    <tspan x="776" y="1971">Horizontal padding on the left and right side of each symbol</tspan>
                </text>
                <text id="can-be-adjusted-by-modifying-the-width-of-the-blue-rectangles." fill="#000000" font-family="Helvetica" font-size="13" font-weight="normal">
                    <tspan x="776" y="1989">can be adjusted by modifying the width of the blue rectangles.</tspan>
                </text>
                <text id="Modifications-are-automatically-applied-proportionally-to-all" fill="#000000" font-family="Helvetica" font-size="13" font-weight="normal">
                    <tspan x="776" y="2007">Modifications are automatically applied proportionally to all</tspan>
                </text>
                <text id="scales-and-weights." fill="#000000" font-family="Helvetica" font-size="13" font-weight="normal">
                    <tspan x="776" y="2025">scales and weights.</tspan>
                </text>
                <g id="Group" transform="translate(1291.000000, 1915.000000)" fill="#000000" fill-rule="nonzero">
                    <path d="M0.96875,20.35352 L1.80859,21.19336 C2.84375,22.22852 4.12305,22.15039 5.19727,20.97852 L14.1621,11.17383 C14.5527,11.25195 14.9629,11.1543 15.4902,10.97852 C16.1738,10.74414 16.2715,10.74414 16.3887,10.86133 C16.5352,10.98828 16.4863,11.10547 16.2422,11.75 C15.8809,12.66797 15.8125,13.20508 16.5547,13.97656 L17.4238,14.86523 C18.2734,15.75391 19.3281,15.73438 20.2168,14.85547 L23.0586,12.02344 C23.9473,11.13477 23.957,10.07031 23.0781,9.2207 L22.1797,8.35156 C21.4082,7.5996 20.8711,7.6484 19.9629,8.01953 C19.3184,8.27344 19.2012,8.3125 19.0645,8.18555 C18.9375,8.06836 18.9473,7.9609 19.1816,7.2871 C19.5332,6.3105 19.5723,5.7148 18.752,4.9043 L17.3359,3.4883 C13.1953,-0.6133 9.2305,-0.7402 5.65625,2.5605 C5.08008,3.0977 4.99219,3.8496 5.53906,4.3867 L5.79297,4.6406 C6.22266,5.0703 6.86719,5.1582 7.41406,4.8848 C9.0645,4.0547 10.2559,3.9766 11.457,5.0215 L11.0273,6.584 C10.8516,7.1992 10.793,7.6582 10.9199,8.06836 L1.18359,16.95508 C0.02148,18.0292969 -0.06641,19.32812 0.96875,20.35352 Z M6.96484,3.5078 C6.89648,3.4297 6.86719,3.3418 6.99414,3.2441 C9.709,0.7148 13.0391,1.1543 16.3496,4.4746 L17.6973,5.832 C18.0879,6.2227 18.0977,6.418 17.8828,7.1309 C17.6582,7.873 17.502,8.46875 18.1465,9.11328 C18.8105,9.77734 19.2891,9.58203 20.207,9.36719 C20.9004,9.20117 21.0664,9.20117 21.4473,9.58203 L22.0918,10.22656 C22.4043,10.51953 22.4141,10.67578 22.0723,11.02734 L19.2207,13.86914 C18.8887,14.20117 18.7227,14.20117 18.4297,13.89844 L17.7852,13.24414 C17.4141,12.86328 17.4141,12.69727 17.5801,11.98438 C17.7852,11.11523 17.9805,10.61719 17.3262,9.95312 C16.6719,9.2793 16.0762,9.42578 15.3438,9.66992 C14.5625,9.93359 14.3281,9.93359 13.8984,9.50391 L12.6094,8.21484 C12.1699,7.7754 12.1309,7.5605 12.2676,7.0918 L13.0293,4.6016 C11.3887,2.7168 9.4941,2.4434 7.20898,3.5566 C7.11133,3.6055 7.04297,3.5859 6.96484,3.5078 Z M1.96484,19.36719 C1.52539,18.927734 1.54492,18.537109 2.14062,17.9902344 L11.7402,9.18164 L13,10.44141 L4.17188,20.02148 C3.625,20.60742 3.24414,20.64648 2.79492,20.19727 L1.96484,19.36719 Z" id="Shape"></path>
                </g>
                <text id="Exporting" fill="#000000" font-family="Helvetica-Bold, Helvetica" font-size="13" font-weight="bold">
                    <tspan x="1289" y="1953">Exporting</tspan>
                </text>
                <text id="Symbols-should-be-outlined-when-exporting-to-ensure-the" fill="#000000" font-family="Helvetica" font-size="13" font-weight="normal">
                    <tspan x="1289" y="1971">Symbols should be outlined when exporting to ensure the</tspan>
                </text>
                <text id="design-is-preserved-when-submitting-to-Xcode." fill="#000000" font-family="Helvetica" font-size="13" font-weight="normal">
                    <tspan x="1289" y="1989">design is preserved when submitting to Xcode.</tspan>
                </text>
                <text id="template-version" fill="#000000" font-family="Helvetica" font-size="13" font-weight="normal">
                    <tspan x="2952" y="1933">Template v.0.1</tspan>
                </text>
                <text id="Generated-from-camera" fill="#000000" font-family="Helvetica" font-size="13" font-weight="normal">
                    <tspan x="2897" y="1951">Generated from camera</tspan>
                </text>
                <text id="Typeset-at-100-points" fill="#000000" font-family="Helvetica" font-size="13" font-weight="normal">
                    <tspan x="2912" y="1969">Typeset at 100 points</tspan>
                </text>
                <text id="Small" fill="#000000" font-family="Helvetica" font-size="13" font-weight="normal">
                    <tspan x="263" y="726">Small</tspan>
                </text>
                <text id="Medium" fill="#000000" font-family="Helvetica" font-size="13" font-weight="normal">
                    <tspan x="263" y="1156">Medium</tspan>
                </text>
                <text id="Large" fill="#000000" font-family="Helvetica" font-size="13" font-weight="normal">
                    <tspan x="263" y="1586">Large</tspan>
                </text>
            </g>
            <g id="Guides" transform="translate(263.000000, 625.000000)">
                <g id="H-reference" transform="translate(76.000000, 0.000000)" fill="#27AAE1" fill-rule="nonzero">
                    <path d="M54.9316,71 L57.666,71 L30.5664,0.541 L28.0762,0.541 L0.976562,71 L3.66211,71 L12.9395,46.5371 L45.7031,46.5371 L54.9316,71 Z M29.1992,3.9102 L29.4434,3.9102 L44.8242,44.291 L13.8184,44.291 L29.1992,3.9102 Z" id="Shape"></path>
                </g>
                <path d="M0,71 L2773,71" id="Baseline-S" stroke="#27AAE1" stroke-width="0.577"></path>
                <path d="M0,0.541 L2773,0.541" id="Capline-S" stroke="#27AAE1" stroke-width="0.577"></path>
                <g id="H-reference" transform="translate(76.000000, 430.000000)" fill="#27AAE1" fill-rule="nonzero">
                    <path d="M54.9316,71 L57.666,71 L30.5664,0.541 L28.0762,0.541 L0.976562,71 L3.66211,71 L12.9395,46.5371 L45.7031,46.5371 L54.9316,71 Z M29.1992,3.9102 L29.4434,3.9102 L44.8242,44.291 L13.8184,44.291 L29.1992,3.9102 Z" id="Shape"></path>
                </g>
                <path d="M0,501 L2773,501" id="Baseline-M" stroke="#27AAE1" stroke-width="0.577"></path>
                <path d="M0,430.54 L2773,430.54" id="Capline-M" stroke="#27AAE1" stroke-width="0.577"></path>
                <g id="H-reference" transform="translate(76.000000, 860.000000)" fill="#27AAE1" fill-rule="nonzero">
                    <path d="M54.9316,71 L57.666,71 L30.5664,0.541 L28.0762,0.541 L0.976562,71 L3.66211,71 L12.9395,46.5371 L45.7031,46.5371 L54.9316,71 Z M29.1992,3.9102 L29.4434,3.9102 L44.8242,44.291 L13.8184,44.291 L29.1992,3.9102 Z" id="Shape"></path>
                </g>
                <path d="M0,931 L2773,931" id="Baseline-L" stroke="#27AAE1" stroke-width="0.577"></path>
                <path d="M0,860.54 L2773,860.54" id="Capline-L" stroke="#27AAE1" stroke-width="0.577"></path>
                <rect id="left-margin" fill="#00AEEF" fill-rule="nonzero" opacity="0.4" x="1117" y="405.79" width="12.4512" height="119.336"></rect>
                <rect id="right-margin" fill="#00AEEF" fill-rule="nonzero" opacity="0.4" x="1244.24" y="405.79" width="12.4512" height="119.336"></rect>
            </g>
            <g id="Symbols" transform="translate(1376.000000, 623.000000)" fill="#000000" fill-rule="nonzero">
                <g id="Regular-S" transform="translate(28.960000, 0.000000)">
                    <path d="M8.24,0 C3.75862799,0 0.04,3.74130255 0.04,8.25 L0.04,57.75 C0.04,62.2586974 3.75862799,66 8.24,66 L49.24,66 L49.24,57.75 L8.24,57.75 L8.24,8.25 L73.84,8.25 L73.84,41.25 L82.04,41.25 L82.04,8.25 C82.04,3.74130255 78.321372,0 73.84,0 L8.24,0 Z M50.8252564,28 L36.4662821,44.8 L26.2098718,34.3 L15.04,49 L51.2579487,49 L60.04,40.009375 L50.8252564,28 Z M62.8801369,49 L57.04,54.8401369 L67.7038964,65.5040332 L57.04,76.1598631 L62.8801369,82 L73.5440332,71.3441701 L84.1998631,82 L90.04,76.1598631 L79.3841701,65.5040332 L90.04,54.8401369 L84.1998631,49 L73.5440332,59.6638964 L62.8801369,49 Z" id="Shape"></path>
                </g>
                <g id="Medium-S" transform="translate(324.400000, 0.000000)">
                    <path d="M8.8,0 C4.31862799,0 0.6,3.74130255 0.6,8.25 L0.6,57.75 C0.6,62.2586974 4.31862799,66 8.8,66 L49.8,66 L49.8,57.75 L8.8,57.75 L8.8,8.25 L74.4,8.25 L74.4,41.25 L82.6,41.25 L82.6,8.25 C82.6,3.74130255 78.881372,0 74.4,0 L8.8,0 Z M51.3852564,28 L37.0262821,44.8 L26.7698718,34.3 L15.6,49 L51.8179487,49 L60.6,40.009375 L51.3852564,28 Z M63.4401369,49 L57.6,54.8401369 L68.2638964,65.5040332 L57.6,76.1598631 L63.4401369,82 L74.1040332,71.3441701 L84.7598631,82 L90.6,76.1598631 L79.9441701,65.5040332 L90.6,54.8401369 L84.7598631,49 L74.1040332,59.6638964 L63.4401369,49 Z" id="Shape"></path>
                </g>
                <g id="Semibold-S" transform="translate(620.920000, 0.000000)">
                    <path d="M8.28,0 C3.79862799,0 0.08,3.74130255 0.08,8.25 L0.08,57.75 C0.08,62.2586974 3.79862799,66 8.28,66 L49.28,66 L49.28,57.75 L8.28,57.75 L8.28,8.25 L73.88,8.25 L73.88,41.25 L82.08,41.25 L82.08,8.25 C82.08,3.74130255 78.361372,0 73.88,0 L8.28,0 Z M50.8652564,28 L36.5062821,44.8 L26.2498718,34.3 L15.08,49 L51.2979487,49 L60.08,40.009375 L50.8652564,28 Z M62.9201369,49 L57.08,54.8401369 L67.7438964,65.5040332 L57.08,76.1598631 L62.9201369,82 L73.5840332,71.3441701 L84.2398631,82 L90.08,76.1598631 L79.4241701,65.5040332 L90.08,54.8401369 L84.2398631,49 L73.5840332,59.6638964 L62.9201369,49 Z" id="Shape"></path>
                </g>
                <g id="Bold-S" transform="translate(919.360000, 0.000000)">
                    <path d="M8.84,0 C4.35862799,0 0.64,3.74130255 0.64,8.25 L0.64,57.75 C0.64,62.2586974 4.35862799,66 8.84,66 L49.84,66 L49.84,57.75 L8.84,57.75 L8.84,8.25 L74.44,8.25 L74.44,41.25 L82.64,41.25 L82.64,8.25 C82.64,3.74130255 78.921372,0 74.44,0 L8.84,0 Z M51.4252564,28 L37.0662821,44.8 L26.8098718,34.3 L15.64,49 L51.8579487,49 L60.64,40.009375 L51.4252564,28 Z M63.4801369,49 L57.64,54.8401369 L68.3038964,65.5040332 L57.64,76.1598631 L63.4801369,82 L74.1440332,71.3441701 L84.7998631,82 L90.64,76.1598631 L79.9841701,65.5040332 L90.64,54.8401369 L84.7998631,49 L74.1440332,59.6638964 L63.4801369,49 Z" id="Shape"></path>
                </g>
                <g id="Regular-M" transform="translate(16.000000, 420.000000)">
                    <path d="M10.4545455,0 C4.74104456,0 0,4.74104456 0,10.4545455 L0,73.1818182 C0,78.8953191 4.74104456,83.6363636 10.4545455,83.6363636 L62.7272727,83.6363636 L62.7272727,73.1818182 L10.4545455,73.1818182 L10.4545455,10.4545455 L94.0909091,10.4545455 L94.0909091,52.2727273 L104.545455,52.2727273 L104.545455,10.4545455 C104.545455,4.74104456 99.80441,0 94.0909091,0 L10.4545455,0 Z M65.3409091,36.5909091 L47.0454545,57.5 L33.9772727,44.4318182 L19.745206,62.7272727 L65.892223,62.7272727 L77.0818537,51.537642 L65.3409091,36.5909091 Z M80.6245561,62.7783203 L73.2328658,70.1700107 L86.7298473,83.6669922 L73.2328658,97.1537642 L80.6245561,104.545455 L94.1215376,91.0586825 L107.60831,104.545455 L115,97.1537642 L101.513228,83.6669922 L115,70.1700107 L107.60831,62.7783203 L94.1215376,76.2753018 L80.6245561,62.7783203 Z" id="Shape"></path>
                </g>
                <g id="Medium-M" transform="translate(311.390000, 420.000000)">
                    <path d="M11.0645455,0 C5.35104456,0 0.61,4.74104456 0.61,10.4545455 L0.61,73.1818182 C0.61,78.8953191 5.35104456,83.6363636 11.0645455,83.6363636 L63.3372727,83.6363636 L63.3372727,73.1818182 L11.0645455,73.1818182 L11.0645455,10.4545455 L94.7009091,10.4545455 L94.7009091,52.2727273 L105.155455,52.2727273 L105.155455,10.4545455 C105.155455,4.74104456 100.41441,0 94.7009091,0 L11.0645455,0 Z M65.9509091,36.5909091 L47.6554545,57.5 L34.5872727,44.4318182 L20.355206,62.7272727 L66.502223,62.7272727 L77.6918537,51.537642 L65.9509091,36.5909091 Z M81.2345561,62.7783203 L73.8428658,70.1700107 L87.3398473,83.6669922 L73.8428658,97.1537642 L81.2345561,104.545455 L94.7315376,91.0586825 L108.21831,104.545455 L115.61,97.1537642 L102.123228,83.6669922 L115.61,70.1700107 L108.21831,62.7783203 L94.7315376,76.2753018 L81.2345561,62.7783203 Z" id="Shape"></path>
                </g>
                <g id="Semibold-M" transform="translate(608.880000, 420.000000)">
                    <path d="M10.5745455,0 C4.86104456,0 0.12,4.74104456 0.12,10.4545455 L0.12,73.1818182 C0.12,78.8953191 4.86104456,83.6363636 10.5745455,83.6363636 L62.8472727,83.6363636 L62.8472727,73.1818182 L10.5745455,73.1818182 L10.5745455,10.4545455 L94.2109091,10.4545455 L94.2109091,52.2727273 L104.665455,52.2727273 L104.665455,10.4545455 C104.665455,4.74104456 99.92441,0 94.2109091,0 L10.5745455,0 Z M65.4609091,36.5909091 L47.1654545,57.5 L34.0972727,44.4318182 L19.865206,62.7272727 L66.012223,62.7272727 L77.2018537,51.537642 L65.4609091,36.5909091 Z M80.7445561,62.7783203 L73.3528658,70.1700107 L86.8498473,83.6669922 L73.3528658,97.1537642 L80.7445561,104.545455 L94.2415376,91.0586825 L107.72831,104.545455 L115.12,97.1537642 L101.633228,83.6669922 L115.12,70.1700107 L107.72831,62.7783203 L94.2415376,76.2753018 L80.7445561,62.7783203 Z" id="Shape"></path>
                </g>
                <g id="Bold-M" transform="translate(904.270000, 420.000000)">
                    <path d="M11.1845455,0 C5.47104456,0 0.73,4.74104456 0.73,10.4545455 L0.73,73.1818182 C0.73,78.8953191 5.47104456,83.6363636 11.1845455,83.6363636 L63.4572727,83.6363636 L63.4572727,73.1818182 L11.1845455,73.1818182 L11.1845455,10.4545455 L94.8209091,10.4545455 L94.8209091,52.2727273 L105.275455,52.2727273 L105.275455,10.4545455 C105.275455,4.74104456 100.53441,0 94.8209091,0 L11.1845455,0 Z M66.0709091,36.5909091 L47.7754545,57.5 L34.7072727,44.4318182 L20.475206,62.7272727 L66.622223,62.7272727 L77.8118537,51.537642 L66.0709091,36.5909091 Z M81.3545561,62.7783203 L73.9628658,70.1700107 L87.4598473,83.6669922 L73.9628658,97.1537642 L81.3545561,104.545455 L94.8515376,91.0586825 L108.33831,104.545455 L115.73,97.1537642 L102.243228,83.6669922 L115.73,70.1700107 L108.33831,62.7783203 L94.8515376,76.2753018 L81.3545561,62.7783203 Z" id="Shape"></path>
                </g>
                <g id="Regular-L" transform="translate(0.000000, 836.000000)">
                    <path d="M13.4,0 C6.07678233,0 0,6.06544505 0,13.375 L0,93.625 C0,100.934555 6.07678233,107 13.4,107 L80.4,107 L80.4,93.625 L13.4,93.625 L13.4,13.375 L120.6,13.375 L120.6,66.875 L134,66.875 L134,13.375 C134,6.06544505 127.923218,0 120.6,0 L13.4,0 Z M83.0516382,47 L59.7581909,74.2 L43.1200142,57.2 L25,81 L83.7535613,81 L98,66.44375 L83.0516382,47 Z M103.379614,80 L94,89.5565876 L111.126864,107.0066 L94,124.443412 L103.379614,134 L120.506478,116.563187 L137.620386,134 L147,124.443412 L129.886091,107.0066 L147,89.5565876 L137.620386,80 L120.506478,97.4500122 L103.379614,80 Z" id="Shape"></path>
                </g>
                <g id="Medium-L" transform="translate(295.350000, 836.000000)">
                    <path d="M14.05,0 C6.72678233,0 0.65,6.06544505 0.65,13.375 L0.65,93.625 C0.65,100.934555 6.72678233,107 14.05,107 L81.05,107 L81.05,93.625 L14.05,93.625 L14.05,13.375 L121.25,13.375 L121.25,66.875 L134.65,66.875 L134.65,13.375 C134.65,6.06544505 128.573218,0 121.25,0 L14.05,0 Z M83.7016382,47 L60.4081909,74.2 L43.7700142,57.2 L25.65,81 L84.4035613,81 L98.65,66.44375 L83.7016382,47 Z M104.029614,80 L94.65,89.5565876 L111.776864,107.0066 L94.65,124.443412 L104.029614,134 L121.156478,116.563187 L138.270386,134 L147.65,124.443412 L130.536091,107.0066 L147.65,89.5565876 L138.270386,80 L121.156478,97.4500122 L104.029614,80 Z" id="Shape"></path>
                </g>
                <g id="Semibold-L" transform="translate(591.790000, 836.000000)">
                    <path d="M13.61,0 C6.28678233,0 0.21,6.06544505 0.21,13.375 L0.21,93.625 C0.21,100.934555 6.28678233,107 13.61,107 L80.61,107 L80.61,93.625 L13.61,93.625 L13.61,13.375 L120.81,13.375 L120.81,66.875 L134.21,66.875 L134.21,13.375 C134.21,6.06544505 128.133218,0 120.81,0 L13.61,0 Z M83.2616382,47 L59.9681909,74.2 L43.3300142,57.2 L25.21,81 L83.9635613,81 L98.21,66.44375 L83.2616382,47 Z M103.589614,80 L94.21,89.5565876 L111.336864,107.0066 L94.21,124.443412 L103.589614,134 L120.716478,116.563187 L137.830386,134 L147.21,124.443412 L130.096091,107.0066 L147.21,89.5565876 L137.830386,80 L120.716478,97.4500122 L103.589614,80 Z" id="Shape"></path>
                </g>
                <g id="Bold-L" transform="translate(888.130000, 836.000000)">
                    <path d="M14.27,0 C6.94678233,0 0.87,6.06544505 0.87,13.375 L0.87,93.625 C0.87,100.934555 6.94678233,107 14.27,107 L81.27,107 L81.27,93.625 L14.27,93.625 L14.27,13.375 L121.47,13.375 L121.47,66.875 L134.87,66.875 L134.87,13.375 C134.87,6.06544505 128.793218,0 121.47,0 L14.27,0 Z M83.9216382,47 L60.6281909,74.2 L43.9900142,57.2 L25.87,81 L84.6235613,81 L98.87,66.44375 L83.9216382,47 Z M104.249614,80 L94.87,89.5565876 L111.996864,107.0066 L94.87,124.443412 L104.249614,134 L121.376478,116.563187 L138.490386,134 L147.87,124.443412 L130.756091,107.0066 L147.87,89.5565876 L138.490386,80 L121.376478,97.4500122 L104.249614,80 Z" id="Shape"></path>
                </g>
            </g>
        </g>
    </g>
</svg>